HIERARCHY
ROOT hip
{
  OFFSET 0 0 0
  CHANNELS 6 Xposition Yposition Zposition Zrotation Yrotation Xrotation
  JOINT abdomen
  {
    OFFSET 0 20.6881 -0.73152
    CHANNELS 3 Zrotation Xrotation Yrotation
    JOINT chest
    {
      OFFSET 0 11.7043 -0.48768
      CHANNELS 3 Zrotation Xrotation Yrotation
      JOINT neck
      {
        OFFSET 0 22.1894 -2.19456
        CHANNELS 3 Zrotation Xrotation Yrotation
        JOINT head
        {
          OFFSET -0.24384 7.07133 1.2192
          CHANNELS 3 Zrotation Xrotation Yrotation
          JOINT leftEye
          {
            OFFSET 4.14528 8.04674 8.04672
            CHANNELS 3 Zrotation Xrotation Yrotation
            End Site
            {
              OFFSET 1 0 0
            }
          }
          JOINT rightEye
          {
            OFFSET -3.6576 8.04674 8.04672
            CHANNELS 3 Zrotation Xrotation Yrotation
            End Site
            {
              OFFSET 1 0 0
            }
          }
        }
      }
      JOINT rCollar
      {
        OFFSET -2.68224 19.2634 -4.8768
        CHANNELS 3 Zrotation Xrotation Yrotation
        JOINT rShldr
        {
          OFFSET -8.77824 -1.95073 1.46304
          CHANNELS 3 Zrotation Xrotation Yrotation
          JOINT rForeArm
          {
            OFFSET -28.1742 -1.7115 0.48768
            CHANNELS 3 Zrotation Xrotation Yrotation
            JOINT rHand
            {
              OFFSET -22.5879 0.773209 7.07136
              CHANNELS 3 Zrotation Xrotation Yrotation
              JOINT rThumb1
              {
                OFFSET -1.2192 -0.487915 3.41376
                CHANNELS 3 Zrotation Xrotation Yrotation
                JOINT rThumb2
                {
                  OFFSET -3.37035 -0.52449 3.41376
                  CHANNELS 3 Zrotation Xrotation Yrotation
                  End Site
                  {
                    OFFSET -1.78271 -1.18214 1.43049
                  }
                }
              }
              JOINT rIndex1
              {
                OFFSET -7.75947 0.938293 5.60832
                CHANNELS 3 Zrotation Xrotation Yrotation
                JOINT rIndex2
                {
                  OFFSET -2.54057 -0.884171 1.56538
                  CHANNELS 3 Zrotation Xrotation Yrotation
                  End Site
                  {
                    OFFSET -1.62519 -0.234802 1.16502
                  }
                }
              }
              JOINT rMid1
              {
                OFFSET -8.24714 1.18213 3.41376
                CHANNELS 3 Zrotation Xrotation Yrotation
                JOINT rMid2
                {
                  OFFSET -3.10165 -0.590103 1.0647
                  CHANNELS 3 Zrotation Xrotation Yrotation
                  End Site
                  {
                    OFFSET -2.48547 -0.328903 0.83742
                  }
                }
              }
              JOINT rRing1
              {
                OFFSET -8.82822 0.546677 1.51678
                CHANNELS 3 Zrotation Xrotation Yrotation
                JOINT rRing2
                {
                  OFFSET -2.60934 -0.819778 -0.0198488
                  CHANNELS 3 Zrotation Xrotation Yrotation
                  End Site
                  {
                    OFFSET -2.33842 -0.294052 0.168128
                  }
                }
              }
              JOINT rPinky1
              {
                OFFSET -8.27202 -0.0477905 -0.4584
                CHANNELS 3 Zrotation Xrotation Yrotation
                JOINT rPinky2
                {
                  OFFSET -1.82734 -0.647385 -0.700984
                  CHANNELS 3 Zrotation Xrotation Yrotation
                  End Site
                  {
                    OFFSET -1.69225 -0.51767 -0.607171
                  }
                }
              }
            }
          }
        }
      }
      JOINT lCollar
      {
        OFFSET 2.68224 19.2634 -4.8768
        CHANNELS 3 Zrotation Xrotation Yrotation
        JOINT lShldr
        {
          OFFSET 8.77824 -1.95073 1.46304
          CHANNELS 3 Zrotation Xrotation Yrotation
          JOINT lForeArm
          {
            OFFSET 28.1742 -1.7115 0.48768
            CHANNELS 3 Zrotation Xrotation Yrotation
            JOINT lHand
            {
              OFFSET 22.5879 0.773209 7.07136
              CHANNELS 3 Zrotation Xrotation Yrotation
              JOINT lThumb1
              {
                OFFSET 1.2192 -0.487915 3.41376
                CHANNELS 3 Zrotation Xrotation Yrotation
                JOINT lThumb2
                {
                  OFFSET 3.37035 -0.52449 3.41376
                  CHANNELS 3 Zrotation Xrotation Yrotation
                  End Site
                  {
                    OFFSET 1.78271 -1.18214 1.43049
                  }
                }
              }
              JOINT lIndex1
              {
                OFFSET 7.75947 0.938293 5.60832
                CHANNELS 3 Zrotation Xrotation Yrotation
                JOINT lIndex2
                {
                  OFFSET 2.54057 -0.884171 1.56538
                  CHANNELS 3 Zrotation Xrotation Yrotation
                  End Site
                  {
                    OFFSET 1.62519 -0.234802 1.16502
                  }
                }
              }
              JOINT lMid1
              {
                OFFSET 8.24714 1.18213 3.41376
                CHANNELS 3 Zrotation Xrotation Yrotation
                JOINT lMid2
                {
                  OFFSET 3.10165 -0.590103 1.0647
                  CHANNELS 3 Zrotation Xrotation Yrotation
                  End Site
                  {
                    OFFSET 2.48547 -0.328903 0.83742
                  }
                }
              }
              JOINT lRing1
              {
                OFFSET 8.82822 0.546677 1.51678
                CHANNELS 3 Zrotation Xrotation Yrotation
                JOINT lRing2
                {
                  OFFSET 2.60934 -0.819778 -0.0198488
                  CHANNELS 3 Zrotation Xrotation Yrotation
                  End Site
                  {
                    OFFSET 2.33842 -0.294052 0.168128
                  }
                }
              }
              JOINT lPinky1
              {
                OFFSET 8.27202 -0.0477905 -0.4584
                CHANNELS 3 Zrotation Xrotation Yrotation
                JOINT lPinky2
                {
                  OFFSET 1.82734 -0.647385 -0.700984
                  CHANNELS 3 Zrotation Xrotation Yrotation
                  End Site
                  {
                    OFFSET 1.69225 -0.51767 -0.607171
                  }
                }
              }
            }
          }
        }
      }
    }
  }
  JOINT rButtock
  {
    OFFSET -8.77824 4.35084 1.2192
    CHANNELS 3 Zrotation Xrotation Yrotation
    JOINT rThigh
    {
      OFFSET 0 -1.70687 -2.19456
      CHANNELS 3 Zrotation Xrotation Yrotation
      JOINT rShin
      {
        OFFSET 0 -36.8199 0.73152
        CHANNELS 3 Zrotation Xrotation Yrotation
        JOINT rFoot
        {
          OFFSET 0.73152 -45.1104 -5.12064
          CHANNELS 3 Zrotation Xrotation Yrotation
          End Site
          {
            OFFSET -1.1221 -3.69964 12.103
          }
        }
      }
    }
  }
  JOINT lButtock
  {
    OFFSET 8.77824 4.35084 1.2192
    CHANNELS 3 Zrotation Xrotation Yrotation
    JOINT lThigh
    {
      OFFSET 0 -1.70687 -2.19456
      CHANNELS 3 Zrotation Xrotation Yrotation
      JOINT lShin
      {
        OFFSET 0 -36.8199 0.73152
        CHANNELS 3 Zrotation Xrotation Yrotation
        JOINT lFoot
        {
          OFFSET -0.73152 -45.1104 -5.12064
          CHANNELS 3 Zrotation Xrotation Yrotation
          End Site
          {
            OFFSET 1.1221 -3.69964 12.103
          }
        }
      }
    }
  }
}
MOTION
Frames:	7
Frame Time:	0.00833333
0.0 0.0 0.0 0.0 0.0 0.0 0.0 0.0 0.0 0.0 0.0 0.0 0.0 0.0 0.0 0.0 0.0 0.0 0.0 0.0 0.0 0.0 0.0 0.0 0.0 0.0 0.0 0.0 0.0 0.0 0.0 0.0 0.0 0.0 0.0 0.0 0.0 0.0 0.0 0.0 0.0 0.0 0.0 0.0 0.0 0.0 0.0 0.0 0.0 0.0 0.0 0.0 0.0 0.0 0.0 0.0 0.0 0.0 0.0 0.0 0.0 0.0 0.0 0.0 0.0 0.0 0.0 0.0 0.0 0.0 0.0 0.0 0.0 0.0 0.0 0.0 0.0 0.0 0.0 0.0 0.0 0.0 0.0 0.0 0.0 0.0 0.0 0.0 0.0 0.0 0.0 0.0 0.0 0.0 0.0 0.0 0.0 0.0 0.0 0.0 0.0 0.0 0.0 0.0 0.0 0.0 0.0 0.0 0.0 0.0 0.0 0.0 0.0 0.0 0.0 0.0 0.0 0.0 0.0 0.0 0.0 0.0 0.0 0.0 0.0 0.0 0.0 0.0 0.0 0.0 0.0 0.0
0.010799999999999999 62.12220000000001 0.1116 -179.725734 -66.533762 178.815504 -0.204095 -0.945193 167.814668 3.454269 -12.397728 -163.04964 -6.968387 -2.575457 -126.936738 43.835089 33.647743 109.832434 36.763937 -0.122219 -0.367789 31.025587 -7.869211 -27.834843 63.245205 27.767567 11.902149 -164.988471 -28.287864 169.113423 -178.937885 6.034284 -33.050904 2.098542 18.720197 -56.826789 2.875374 -13.757758 33.917903 22.372458 17.033392 -147.046211 40.056832 33.941149 -89.797569 -12.673429 -25.885137 40.754385 143.1758 31.237963 -117.610706 -158.507832 -7.93747 140.099173 79.946393 19.269309 -79.42839 10.186744 26.566242 -0.392732 85.884571 17.529601 -60.089246 -140.924057 -7.779541 -137.474965 89.456271 -54.393279 -169.080198 -13.146899 -62.916375 -4.514958 163.991333 43.566238 31.141449 -23.285272 -39.950674 21.315224 177.255972 3.406259 -79.276191 -49.611946 -61.436578 -21.138218 -4.702068 -29.882996 -15.418576 137.061615 20.225378 -102.335808 163.585602 9.533844 -131.683932 177.885872 -30.48655 -146.277989 -160.240788 23.960376 60.704989 -9.37693 13.847374 6.880514 167.405013 37.590506 42.892977 -22.41701 57.972508 -7.23728 -18.188188 52.63535 -156.4789 1.437971 53.525732 114.156421 -2.87075 6.765224 -144.10268 -65.488365 -17.417389 112.362701 -4.550797 -48.643873 -6.052903 1.41193 49.924008 -1.062427 2.755267 -4.530121 30.005601 -46.039027 69.699536 42.345747
0.28909999999999997 73.7372 0.2736 -2.63778 15.768303 2.426316 -4.872447 9.537842 -134.310887 1.563481 3.05078 133.505787 -11.740536 16.348776 -81.774856 25.632508 17.297865 115.270993 1.805066 0.376203 23.543772 -2.920938 -0.277809 10.863754 4.622194 -14.378743 -2.585995 69.373511 36.161991 -33.148311 -91.555824 6.26125 71.003207 50.070982 -75.677326 30.272885 -176.151952 -7.645807 94.239934 162.166292 -16.732941 93.520656 -82.327509 49.259244 71.219522 87.087212 -60.05105 50.471655 -151.648409 18.895124 140.458171 5.911435 -10.653521 1.291963 6.788109 -4.416172 0.252149 -158.222901 -26.601474 179.325847 -145.490031 12.898357 -148.087768 -5.203592 22.362128 4.446763 151.580237 -2.144682 -162.817412 -132.195499 14.087611 144.015034 -179.583743 -14.005608 -12.266999 169.626196 19.570865 -146.385799 13.545586 9.320294 6.235566 133.095794 -29.266876 -110.901232 157.373628 -9.111528 -123.087048 84.806556 52.2411 -67.277828 159.071243 17.910893 -133.100902 -87.926255 -68.027383 -68.702956 149.550997 2.925615 172.97926 -39.908036 57.77928 32.91471 -19.245067 61.505639 -10.783574 50.426585 -41.278643 49.194967 -165.178949 78.107535 -15.131388 173.162184 54.046693 5.464475 10.706148 48.058353 57.597726 -156.532273 12.830098 89.518468 -179.56514 77.7046 -0.0 -158.17949 48.251345 -16.341033 -2.61817 46.275202 -44.521371 -121.007942 -71.705197 -18.557942
0.394 68.4211 0.9527000000000001 1.164238 12.544276 3.738216 -6.695597 9.170941 -106.660011 6.167042 -2.448907 113.470238 -7.943953 17.527949 -64.527666 25.868034 7.624266 91.956264 1.597446 -0.285218 -20.245324 -8.112938 -0.729866 10.264401 0.188253 -61.897224 -17.573388 4.49401 -0.497701 -58.40784 80.983482 -0.581721 -22.207477 -117.960435 66.03994 89.53592 -1.491323 -2.848485 -4.962049 -102.069208 7.880677 95.193696 -47.690104 40.208887 34.754866 -175.075847 -31.373492 108.867328 89.766058 -80.626436 65.551431 -163.829237 -4.752444 144.839502 -78.562423 64.277348 92.700383 14.457758 52.580037 -7.627848 -151.775445 -40.169125 -145.533282 -30.405843 -36.266953 -28.714728 28.940623 -86.848374 52.552032 56.245896 -50.380347 119.601949 173.917145 -2.450203 51.579249 8.82005 -17.880721 4.688046 -2.601605 -5.112278 3.816258 12.112596 7.241707 0.579366 141.776324 6.135608 -115.203348 -19.672172 -6.209793 7.297556 -0.527175 -24.620386 3.718923 23.798475 64.615786 -24.359269 5.495714 0.949416 4.23063 154.517776 -4.55758 -162.175411 -5.044974 -0.465911 1.249679 178.385857 87.699734 159.97747 0.056377 -1.523351 2.119703 -6.429249 -20.87463 -42.901904 -44.356632 32.711785 -57.675809 147.720835 35.804322 -60.811259 -139.015153 72.781437 -26.541181 166.58236 51.061799 17.050794 20.024434 43.961196 -111.51083 38.492826 -55.708732 110.204542
0.1448 72.5851 1.0434 -0.664445 11.949678 4.301266 -5.010251 6.205422 -79.246008 3.479372 -5.387357 86.475192 9.078233 29.35025 155.479482 -10.632077 23.898382 -122.105124 5.839643 -0.608123 -11.880247 0.415262 0.006637 1.831356 -24.324834 -85.802661 -48.120591 166.764997 -4.52284 -131.920725 174.639958 63.126733 98.282519 179.82209 -7.678957 140.501893 4.970078 -7.028263 -4.096099 -147.596352 -52.824261 121.848793 -6.230943 -0.533478 -2.540225 93.046646 -59.357761 36.303254 -9.356006 14.04236 2.817064 1.61841 16.321455 2.816711 -77.791719 68.154851 91.448687 -76.411545 82.741058 90.060753 -5.790214 62.572023 30.17581 2.668811 -0.409476 3.582007 -0.64411 -70.449577 17.568438 -173.692365 77.584621 96.274774 -114.13056 69.101324 -74.49222 151.938537 48.281563 -122.786 168.478251 -2.424413 -96.174103 162.833606 -4.803089 -82.497396 2.69388 -4.136004 7.534713 175.540039 -26.744511 -103.32706 103.168359 61.670097 -87.826307 166.283024 -6.54958 -134.75527 79.518261 -78.08935 94.507574 149.306268 42.734669 -163.623986 5.457248 -0.43143 -7.996903 164.881158 56.930706 139.837424 177.775338 77.457177 2.278997 172.916169 53.708021 162.193083 14.990771 -37.05966 -130.615824 -72.184648 28.5796 -10.39717 -1.904174 -0.528463 -2.814639 14.970055 -23.44561 -146.097424 -30.465063 -32.813323 64.908233 7.108968 -63.999482 84.405082
-0.0415 71.4852 0.9296000000000001 -1.721189 12.980888 4.291058 -3.257924 6.122468 -72.603948 2.714399 -6.613868 80.644186 13.79007 19.741148 94.941881 -10.795422 8.626955 -62.793708 6.154969 -0.426768 -7.925192 -2.791599 -0.079421 3.258612 7.951579 -43.854741 -7.050066 125.272482 40.82427 -85.961631 -11.765924 -24.857319 42.769414 -2.995565 -3.512265 -3.553393 -178.729667 -16.266146 92.996815 -40.145338 -20.294996 1.264677 -143.998473 3.842914 116.468298 -164.031069 -6.261548 113.835233 -21.785506 38.981476 14.321538 -172.294354 -41.661793 144.206847 -147.033222 -1.38679 -178.550337 -24.26752 -74.486431 -48.394815 -149.646191 7.144487 -143.289229 -161.316298 55.209036 -150.227886 156.534285 -3.488588 -161.84901 -151.380763 -10.961555 134.431649 -86.754231 60.813749 -86.3989 121.887391 68.312724 -94.299116 -85.912788 -55.910168 -36.513043 101.069779 33.865192 -67.740549 92.863494 46.950611 -76.46057 164.010143 6.662892 -118.754713 161.14735 7.302004 -141.509175 166.319303 8.646804 -140.057737 74.363327 67.466875 -92.099667 -8.659323 40.706195 2.23951 -4.894088 44.735872 -18.75206 53.224213 -52.050309 53.611497 -1.553404 -1.753418 -0.0 -0.451319 -18.548682 -5.548395 6.675618 38.248031 81.065338 -7.405274 76.443732 -87.159776 -0.038814 -1.195022 -1.860427 12.835845 -22.629546 111.240389 33.240403 -27.849061 -74.481096 57.42197 -41.81465 -27.257245
-0.3061 71.6502 0.8040999999999999 -2.163651 12.759349 4.094823 -7.540824 5.61269 75.165732 -4.256241 0.298281 -65.508192 4.739773 10.411967 18.959042 0.161913 -0.278708 14.214473 4.289142 -0.094927 -2.534546 -1.461695 -0.025946 2.033742 -155.494466 -22.609085 164.529363 125.267231 -18.542926 173.226055 177.825055 32.85726 102.736883 175.590444 -10.560709 142.526477 -68.407686 40.900124 35.588351 152.242898 -55.359019 66.584704 -0.440374 -4.285127 -3.441638 14.364635 7.111216 -0.570011 -168.097616 -27.543612 145.748271 -167.399232 -6.618943 139.65638 -145.720045 -1.169458 -178.120816 -153.166168 37.507666 174.545693 -150.525885 14.523524 -143.021666 0.185389 -2.438497 -0.82078 42.297016 -85.984553 63.3256 101.277694 5.596448 146.6738 9.534091 64.142115 153.443306 -176.756151 -8.599933 -138.713999 170.692611 -8.91926 -94.744886 147.603722 8.75563 -82.141035 48.206036 45.082799 -36.243963 -86.68279 -64.589664 -47.256908 -4.644327 -25.28459 4.141326 78.763983 65.757941 -77.566969 142.422543 11.871244 -171.181659 153.177038 -3.183558 -177.529468 146.158423 11.516323 146.616404 -31.87667 74.912748 -2.209622 3.556758 -0.653848 3.510274 -5.751213 -19.95773 -16.439872 -13.617801 43.397235 -120.577729 129.22995 -41.947478 -143.475459 175.927582 76.311096 4.191059 -159.223322 48.212007 153.031213 -16.537555 -42.630996 -129.050436 -37.179894 25.038769 -44.688642
